{
  "notes": [
    {
      "time": 6.0,
      "note": 64,
      "velocity": 105,
      "color": "green"
    },
    {
      "time": 7.0,
      "note": 64,
      "velocity": 105,
      "color": "blue"
    },
    {
      "time": 7.5,
      "note": 71,
      "velocity": 105,
      "color": "green"
    },
    {
      "time": 8.0,
      "note": 71,
      "velocity": 105,
      "color": "red"
    },
    {
      "time": 8.5,
      "note": 71,
      "velocity": 105,
      "color": "red"
    },
    {
      "time": 9.0,
      "note": 66,
      "velocity": 105,
      "color": "blue"
    },
    {
      "time": 9.75,
      "note": 67,
      "velocity": 105,
      "color": "red"
    },
    {
      "time": 10.0,
      "note": 66,
      "velocity": 105,
      "color": "green"
    },
    {
      "time": 10.5,
      "note": 64,
      "velocity": 105,
      "color": "red"
    },
    {
      "time": 12.0,
      "note": 71,
      "velocity": 105,
      "color": "yellow"
    },
    {
      "time": 13.0,
      "note": 74,
      "velocity": 105,
      "color": "green"
    },
    {
      "time": 13.5,
      "note": 76,
      "velocity": 105,
      "color": "yellow"
    },
    {
      "time": 14.5,
      "note": 74,
      "velocity": 105,
      "color": "yellow"
    },
    {
      "time": 15.0,
      "note": 71,
      "velocity": 105,
      "color": "red"
    },
    {
      "time": 15.5,
      "note": 73,
      "velocity": 105,
      "color": "green"
    },
    {
      "time": 16.0,
      "note": 69,
      "velocity": 105,
      "color": "blue"
    },
    {
      "time": 16.5,
      "note": 71,
      "velocity": 105,
      "color": "yellow"
    },
    {
      "time": 17.5,
      "note": 71,
      "velocity": 105,
      "color": "blue"
    },
    {
      "time": 18.0,
      "note": 76,
      "velocity": 105,
      "color": "red"
    },
    {
      "time": 19.0,
      "note": 76,
      "velocity": 105,
      "color": "red"
    },
    {
      "time": 19.5,
      "note": 74,
      "velocity": 105,
      "color": "red"
    },
    {
      "time": 20.5,
      "note": 71,
      "velocity": 105,
      "color": "blue"
    },
    {
      "time": 21.0,
      "note": 71,
      "velocity": 105,
      "color": "blue"
    },
    {
      "time": 21.5,
      "note": 69,
      "velocity": 105,
      "color": "red"
    },
    {
      "time": 22.0,
      "note": 67,
      "velocity": 105,
      "color": "green"
    },
    {
      "time": 22.5,
      "note": 66,
      "velocity": 105,
      "color": "blue"
    },
    {
      "time": 22.75,
      "note": 62,
      "velocity": 105,
      "color": "red"
    },
    {
      "time": 23.5,
      "note": 62,
      "velocity": 105,
      "color": "red"
    },
    {
      "time": 24.0,
      "note": 64,
      "velocity": 105,
      "color": "yellow"
    },
    {
      "time": 25.0,
      "note": 71,
      "velocity": 105,
      "color": "blue"
    },
    {
      "time": 25.5,
      "note": 69,
      "velocity": 105,
      "color": "blue"
    },
    {
      "time": 26.5,
      "note": 67,
      "velocity": 105,
      "color": "yellow"
    },
    {
      "time": 27.0,
      "note": 66,
      "velocity": 105,
      "color": "green"
    },
    {
      "time": 27.5,
      "note": 64,
      "velocity": 105,
      "color": "green"
    },
    {
      "time": 28.0,
      "note": 62,
      "velocity": 105,
      "color": "blue"
    },
    {
      "time": 28.5,
      "note": 64,
      "velocity": 105,
      "color": "green"
    },
      {
        "time": 63.0,
        "note": 64,
        "velocity": 105,
        "color": "green"
      },
      {
        "time": 64.0,
        "note": 64,
        "velocity": 105,
        "color": "blue"
      },
      {
        "time": 64.5,
        "note": 71,
        "velocity": 105,
        "color": "green"
      },
      {
        "time": 65.0,
        "note": 71,
        "velocity": 105,
        "color": "red"
      },
      {
        "time": 65.5,
        "note": 71,
        "velocity": 105,
        "color": "red"
      },
      {
        "time": 66.0,
        "note": 66,
        "velocity": 105,
        "color": "blue"
      },
      {
        "time": 66.75,
        "note": 67,
        "velocity": 105,
        "color": "red"
      },
      {
        "time": 67.0,
        "note": 66,
        "velocity": 105,
        "color": "green"
      },
      {
        "time": 67.5,
        "note": 64,
        "velocity": 105,
        "color": "red"
      },
      {
        "time": 69.0,
        "note": 71,
        "velocity": 105,
        "color": "yellow"
      },
      {
        "time": 70.0,
        "note": 74,
        "velocity": 105,
        "color": "green"
      },
      {
        "time": 70.5,
        "note": 76,
        "velocity": 105,
        "color": "yellow"
      },
      {
        "time": 71.5,
        "note": 74,
        "velocity": 105,
        "color": "yellow"
      },
      {
        "time": 72.0,
        "note": 71,
        "velocity": 105,
        "color": "red"
      },
      {
        "time": 72.5,
        "note": 73,
        "velocity": 105,
        "color": "green"
      },
      {
        "time": 73.0,
        "note": 69,
        "velocity": 105,
        "color": "blue"
      },
      {
        "time": 73.5,
        "note": 71,
        "velocity": 105,
        "color": "yellow"
      },
      {
        "time": 74.5,
        "note": 71,
        "velocity": 105,
        "color": "blue"
      },
      {
        "time": 75.0,
        "note": 76,
        "velocity": 105,
        "color": "red"
      },
      {
        "time": 76.0,
        "note": 76,
        "velocity": 105,
        "color": "red"
      },
      {
        "time": 76.5,
        "note": 74,
        "velocity": 105,
        "color": "red"
      },
      {
        "time": 77.5,
        "note": 71,
        "velocity": 105,
        "color": "blue"
      },
      {
        "time": 78.0,
        "note": 71,
        "velocity": 105,
        "color": "blue"
      },
      {
        "time": 78.5,
        "note": 69,
        "velocity": 105,
        "color": "red"
      },
      {
        "time": 79.0,
        "note": 67,
        "velocity": 105,
        "color": "green"
      },
      {
        "time": 79.5,
        "note": 66,
        "velocity": 105,
        "color": "blue"
      },
      {
        "time": 79.75,
        "note": 62,
        "velocity": 105,
        "color": "red"
      },
      {
        "time": 80.5,
        "note": 62,
        "velocity": 105,
        "color": "red"
      },
      {
        "time": 81.0,
        "note": 64,
        "velocity": 105,
        "color": "yellow"
      },
      {
        "time": 82.0,
        "note": 71,
        "velocity": 105,
        "color": "blue"
      },
      {
        "time": 82.5,
        "note": 69,
        "velocity": 105,
        "color": "blue"
      },
      {
        "time": 83.5,
        "note": 67,
        "velocity": 105,
        "color": "yellow"
      },
      {
        "time": 84.0,
        "note": 66,
        "velocity": 105,
        "color": "green"
      },
      {
        "time": 84.5,
        "note": 64,
        "velocity": 105,
        "color": "green"
      },
      {
        "time": 85.0,
        "note": 62,
        "velocity": 105,
        "color": "blue"
      },
      {
        "time": 85.5,
        "note": 64,
        "velocity": 105,
        "color": "green"
      }
  
  ]
}