# Wavefront Obj file
# 
# verts: 90 uv-s: 116
mtllib hammer.mtl

g mace
#pivot 0.000000 0.000000 0.000000

v -18.973047 97.427826 -34.789406
v -21.020475 74.713257 -1.300875
v -20.888027 56.650070 -1.300875
v 19.038893 97.427826 32.187653
v -20.888027 92.776443 -1.300875
v 19.038893 51.998692 -34.789406
v 19.038893 51.998692 32.187653
v -19.021364 53.141136 -1.300875
v 0.032923 53.392387 -1.300875
v -19.021364 96.285370 -1.300875
v 0.032923 97.260101 32.826141
v 0.032923 52.166412 -35.427895
v -16.904209 74.713257 37.247383
v -16.904209 74.713257 -39.849129
v 0.032923 52.166412 32.826141
v 0.032923 96.034126 -1.300875
v 0.032923 94.282944 37.033829
v 0.032923 55.143570 -39.635574
v -21.862503 74.713257 32.440514
v -21.862503 74.713257 -35.042267
v 0.032923 55.143570 37.033829
v 22.838398 95.103477 -34.078247
v 0.032923 74.713257 37.169243
v -21.111526 74.713257 35.713280
v -21.111526 74.713257 -38.315025
v 0.032923 97.260101 -35.427895
v 21.023600 92.585159 35.124893
v 0.032923 94.282944 -39.635574
v 0.032923 74.713257 -39.770996
v -22.772552 54.323036 31.476500
v -22.772552 54.323036 -34.078247
v -22.772552 95.103477 31.476500
v -16.758278 55.159904 36.098572
v -16.758278 55.159904 -38.700325
v -16.758278 94.266602 36.098572
v -20.957754 92.585159 -37.726639
v -16.758278 94.266602 -38.700325
v -20.957754 56.841354 35.124893
v -20.957754 56.841354 -37.726639
v -20.957754 92.585159 35.124893
v -22.772552 95.103477 -34.078247
v 21.023600 56.841354 -37.726639
v 21.023600 56.841354 35.124893
v 16.824123 94.266602 -38.700325
v 21.023600 92.585159 -37.726639
v 16.824123 94.266602 36.098572
v 16.824123 55.159904 -38.700325
v 16.824123 55.159904 36.098572
v 22.838398 95.103477 31.476500
v 22.838398 54.323036 -34.078247
v 22.838398 54.323036 31.476500
v 21.177372 74.713257 -38.315025
v 21.177372 74.713257 35.713280
v 21.928349 74.713257 -35.042267
v 21.928349 74.713257 32.440514
v 16.970055 74.713257 -39.849129
v 16.970055 74.713257 37.247383
v 19.087210 96.285370 -1.300875
v 19.087210 53.141136 -1.300875
v 20.953873 92.776443 -1.300875
v 20.953873 56.650070 -1.300875
v 21.086321 74.713257 -1.300875
v 19.038893 97.427826 -34.789406
v -18.973047 51.998692 32.187653
v -18.973047 51.998692 -34.789406
v -18.973047 97.427826 32.187653
# 66 positions

vt 0.313883 0.869449
vt 0.313881 0.774115
vt 0.423082 0.770877
vt 0.428896 0.865629
vt 0.313881 0.206753
vt 0.313881 0.302087
vt 0.204681 0.305325
vt 0.198867 0.210574
vt 0.198869 0.865631
vt 0.204681 0.770879
vt 0.313881 0.749064
vt 0.415232 0.745826
vt 0.179274 0.753163
vt 0.204681 0.770876
vt 0.212531 0.745826
vt 0.447156 0.729649
vt 0.424280 0.720655
vt 0.415234 0.745828
vt 0.415234 0.330373
vt 0.424279 0.355546
vt 0.447155 0.346553
vt 0.212531 0.330374
vt 0.204681 0.305323
vt 0.179274 0.323037
vt 0.313881 0.327138
vt 0.212530 0.330376
vt 0.212530 0.745828
vt 0.313881 0.730045
vt 0.424278 0.720654
vt 0.313881 0.346157
vt 0.203485 0.355549
vt 0.203485 0.720653
vt 0.180610 0.729647
vt 0.180610 0.346553
vt 0.203485 0.355547
vt 0.423083 0.770878
vt 0.448491 0.753166
vt 0.203485 0.720655
vt 0.448489 0.753163
vt 0.458579 0.861812
vt 0.415232 0.330375
vt 0.423081 0.305325
vt 0.448489 0.323038
vt 0.313882 0.302085
vt 0.423083 0.305322
vt 0.428895 0.210570
vt 0.179273 0.323039
vt 0.169184 0.214391
vt 0.313882 0.327136
vt 0.313882 0.346155
vt 0.206592 0.538100
vt 0.313883 0.730044
vt 0.313883 0.538100
vt 0.421173 0.538100
vt 0.169187 0.861815
vt 0.179273 0.753166
vt 0.313881 0.538101
vt 0.424278 0.355548
vt 0.421171 0.538101
vt 0.447153 0.346555
vt 0.444613 0.538101
vt 0.554353 0.538101
vt 0.553835 0.343292
vt 0.183151 0.538100
vt 0.444614 0.538101
vt 0.458577 0.214389
vt 0.553835 0.732911
vt 0.447154 0.729647
vt 0.073928 0.343292
vt 0.180609 0.346555
vt 0.183150 0.538102
vt 0.073410 0.538102
vt 0.180609 0.729648
vt 0.073928 0.732911
vt 0.448491 0.323035
vt 0.206591 0.538102
vt 0.313883 0.749064
vt 0.313882 0.774115
# 78 texture coordinates

vn -0.344849 0.877074 -0.334397
vn -1.000000 0.000000 0.000000
vn -0.934804 -0.355165 0.000000
vn 0.344848 0.877074 0.334397
vn -0.934804 0.355165 0.000000
vn 0.344849 -0.877074 -0.334397
vn 0.344849 -0.877074 0.334397
vn -0.385514 -0.922702 0.000000
vn 0.000000 -1.000000 0.000000
vn -0.385514 0.922702 0.000000
vn 0.000000 0.950431 0.310935
vn 0.000000 -0.950431 -0.310935
vn -0.161158 0.000000 0.986929
vn -0.161159 0.000000 -0.986929
vn 0.000000 -0.950431 0.310935
vn 0.000000 1.000000 0.000000
vn 0.000000 0.451865 0.892086
vn 0.000000 -0.451865 -0.892086
vn -0.986728 0.000000 0.162381
vn -0.986728 -0.000000 -0.162381
vn 0.000000 -0.451865 0.892086
vn 0.886539 0.406724 -0.220510
vn -0.000000 0.000000 1.000000
vn -0.683876 0.000000 0.729598
vn -0.683876 0.000000 -0.729598
vn 0.000000 0.950431 -0.310936
vn 0.643173 0.225643 0.731719
vn 0.000000 0.451865 -0.892087
vn 0.000000 0.000000 -1.000000
vn -0.886539 -0.406724 0.220510
vn -0.886539 -0.406724 -0.220510
vn -0.886539 0.406724 0.220510
vn -0.171294 -0.446543 0.878213
vn -0.171295 -0.446543 -0.878213
vn -0.171294 0.446542 0.878213
vn -0.643174 0.225643 -0.731719
vn -0.171295 0.446542 -0.878213
vn -0.643174 -0.225643 0.731719
vn -0.643174 -0.225643 -0.731719
vn -0.643173 0.225643 0.731719
vn -0.886539 0.406724 -0.220510
vn 0.643174 -0.225643 -0.731719
vn 0.643173 -0.225643 0.731719
vn 0.171295 0.446542 -0.878213
vn 0.643174 0.225643 -0.731719
vn 0.171294 0.446542 0.878213
vn 0.171295 -0.446543 -0.878213
vn 0.171294 -0.446543 0.878213
vn 0.886539 0.406724 0.220510
vn 0.886539 -0.406724 -0.220510
vn 0.886539 -0.406724 0.220510
vn 0.683876 0.000000 -0.729598
vn 0.683876 0.000000 0.729598
vn 0.986728 0.000000 -0.162381
vn 0.986728 -0.000000 0.162381
vn 0.161159 0.000000 -0.986928
vn 0.161158 0.000000 0.986929
vn 0.385514 0.922702 0.000000
vn 0.385514 -0.922702 0.000000
vn 0.934804 0.355165 0.000000
vn 0.934804 -0.355165 0.000000
vn 1.000000 0.000000 0.000000
vn 0.344849 0.877074 -0.334397
vn -0.344849 -0.877074 0.334397
vn -0.344849 -0.877074 -0.334397
vn -0.344848 0.877074 0.334397
# 66 normals

usemtl Default
f 23/1/23 57/2/57 46/3/46 17/4/17
f 29/5/29 56/6/56 47/7/47 18/8/18
f 21/9/21 48/10/48 57/2/57 23/1/23
f 53/11/53 27/12/27 46/3/46 57/2/57
f 64/13/64 33/14/33 38/15/38
f 66/16/66 32/17/32 40/18/40
f 36/19/36 41/20/41 1/21/1
f 39/22/39 34/23/34 65/24/65
f 52/25/52 42/26/42 47/7/47 56/6/56
f 57/2/57 48/10/48 43/27/43 53/11/53
f 55/28/55 49/29/49 27/12/27 53/11/53
f 54/30/54 50/31/50 42/26/42 52/25/52
f 38/15/38 30/32/30 64/33/64
f 65/34/65 31/35/31 39/22/39
f 40/18/40 35/36/35 66/37/66
f 53/11/53 43/27/43 51/38/51 55/28/55
f 17/4/17 46/3/46 4/39/4 11/40/11
f 45/41/45 44/42/44 63/43/63
f 29/5/29 14/44/14 37/45/37 28/46/28
f 18/8/18 47/7/47 6/47/6 12/48/12
f 25/49/25 36/19/36 37/45/37 14/44/14
f 20/50/20 41/20/41 36/19/36 25/49/25
f 3/51/3 30/32/30 19/52/19 2/53/2
f 2/53/2 20/50/20 31/35/31 3/51/3
f 2/53/2 19/52/19 32/17/32 5/54/5
f 15/55/15 7/56/7 48/10/48 21/9/21
f 62/57/62 54/30/54 22/58/22 60/59/60
f 60/59/60 22/58/22 63/60/63 58/61/58
f 16/62/16 58/61/58 63/60/63 26/63/26
f 8/64/8 64/33/64 30/32/30 3/51/3
f 3/51/3 31/35/31 65/34/65 8/64/8
f 5/54/5 32/17/32 66/16/66 10/65/10
f 26/66/26 63/43/63 44/42/44 28/46/28
f 11/67/11 4/68/4 58/61/58 16/62/16
f 12/69/12 6/70/6 59/71/59 9/72/9
f 9/72/9 59/71/59 7/73/7 15/74/15
f 15/74/15 64/33/64 8/64/8 9/72/9
f 9/72/9 8/64/8 65/34/65 12/69/12
f 16/62/16 10/65/10 66/16/66 11/67/11
f 58/61/58 4/68/4 49/29/49 60/59/60
f 28/46/28 37/45/37 1/75/1 26/66/26
f 59/71/59 6/70/6 50/31/50 61/76/61
f 26/63/26 1/21/1 10/65/10 16/62/16
f 10/65/10 1/21/1 41/20/41 5/54/5
f 5/54/5 41/20/41 20/50/20 2/53/2
f 61/76/61 51/38/51 7/73/7 59/71/59
f 60/59/60 49/29/49 55/28/55 62/57/62
f 21/9/21 33/14/33 64/13/64 15/55/15
f 12/48/12 65/24/65 34/23/34 18/8/18
f 1/75/1 37/45/37 36/19/36
f 11/40/11 66/37/66 35/36/35 17/4/17
f 61/76/61 50/31/50 54/30/54 62/57/62
f 62/57/62 55/28/55 51/38/51 61/76/61
f 52/25/52 45/41/45 22/58/22 54/30/54
f 56/6/56 44/42/44 45/41/45 52/25/52
f 19/52/19 30/32/30 38/15/38 24/77/24
f 25/49/25 39/22/39 31/35/31 20/50/20
f 24/77/24 40/18/40 32/17/32 19/52/19
f 28/46/28 44/42/44 56/6/56 29/5/29
f 4/39/4 46/3/46 27/12/27
f 42/26/42 50/31/50 6/70/6
f 7/73/7 51/38/51 43/27/43
f 24/77/24 38/15/38 33/14/33 13/78/13
f 14/44/14 34/23/34 39/22/39 25/49/25
f 13/78/13 35/36/35 40/18/40 24/77/24
f 6/47/6 47/7/47 42/26/42
f 63/60/63 22/58/22 45/41/45
f 27/12/27 49/29/49 4/68/4
f 43/27/43 48/10/48 7/56/7
f 23/1/23 13/78/13 33/14/33 21/9/21
f 18/8/18 34/23/34 14/44/14 29/5/29
f 17/4/17 35/36/35 13/78/13 23/1/23

g handle
#pivot 0.000000 0.000000 0.000000

v 8.208169 104.218323 2.666658
v 6.963866 104.074257 -6.064240
v 8.083850 -32.408707 4.221420
v 7.494143 -32.206154 -5.500946
v -5.930537 -34.062477 5.358407
v -0.872350 -32.184494 -10.781631
v -7.200469 104.125916 -5.631528
v -8.032504 -32.631355 -4.081281
v -6.795028 104.312057 6.162433
v -7.136983 -32.226906 6.369545
v 2.133316 104.213745 10.277575
v 0.691904 -32.169403 11.014759
v -4.304914 106.376602 5.390564
v -6.631691 -34.148582 -3.564291
v 0.562099 105.910545 9.063680
v 6.011933 106.364464 2.943697
v 5.277833 106.271950 -4.947921
v -1.047456 104.064026 -10.550556
v -0.666723 106.230293 -8.160460
v -5.247645 106.384048 -3.725506
v -0.833979 -34.200676 -8.661526
v 6.134558 -34.226761 -4.292840
v 6.221458 -34.168671 4.522346
v 0.631316 -34.174179 8.929962
# 24 positions

vt 0.694340 0.882015
vt 0.748841 0.880648
vt 0.754394 0.120166
vt 0.705132 0.118628
vt 0.805852 0.119197
vt 0.804158 0.882537
vt 0.849886 0.119366
vt 0.859013 0.884667
vt 0.917663 0.882096
vt 0.915873 0.118420
vt 0.970849 0.118751
vt 0.968569 0.881521
vt 0.650681 0.118291
vt 0.638185 0.880560
vt 0.821821 0.067772
vt 0.778371 0.014527
vt 0.768046 0.029274
vt 0.802698 0.066704
vt 0.722799 0.018207
vt 0.733857 0.027446
vt 0.718529 0.028240
vt 0.718147 0.084486
vt 0.731020 0.073507
vt 0.760446 0.105247
vt 0.798106 0.102448
vt 0.813957 0.111353
vt 0.803271 0.941516
vt 0.769102 0.977420
vt 0.772584 0.990043
vt 0.814059 0.945654
vt 0.710617 0.922084
vt 0.721016 0.931943
vt 0.752394 0.894758
vt 0.713068 0.979606
vt 0.727640 0.972233
vt 0.721645 0.987368
vt 0.798299 0.898275
vt 0.812530 0.890299
# 38 texture coordinates

vn 0.897588 0.357827 0.257479
vn 0.783242 0.348700 -0.514724
vn 0.897761 -0.328540 0.293404
vn 0.791391 -0.344026 -0.505318
vn -0.427508 -0.865461 0.261179
vn -0.075253 -0.341344 -0.936921
vn -0.839253 0.379691 -0.389217
vn -0.873522 -0.336819 -0.351444
vn -0.803066 0.325703 0.499001
vn -0.787846 -0.331450 0.519075
vn 0.241859 0.342059 0.908020
vn 0.129455 -0.322085 0.937818
vn -0.383047 0.867557 0.317206
vn -0.461726 -0.868890 -0.178434
vn -0.030142 0.821890 0.568848
vn 0.429819 0.886861 0.169507
vn 0.392767 0.876542 -0.278223
vn -0.084290 0.374298 -0.923470
vn -0.023075 0.885861 -0.463376
vn -0.404372 0.905016 -0.132021
vn -0.051072 -0.876882 -0.477985
vn 0.420716 -0.879062 -0.224164
vn 0.439104 -0.858880 0.263653
vn 0.063017 -0.862636 0.501884
# 24 normals

usemtl Default
f 69/79/69 70/80/70 68/81/68 67/82/67
f 84/83/84 68/81/68 70/80/70 72/84/72
f 73/85/73 84/83/84 72/84/72 74/86/74
f 74/86/74 76/87/76 75/88/75 73/85/73
f 77/89/77 75/88/75 76/87/76 78/90/78
f 67/82/67 77/91/77 78/92/78 69/79/69
f 73/93/73 75/94/75 79/95/79 86/96/86
f 75/94/75 77/97/77 81/98/81 79/95/79
f 77/99/77 67/100/67 82/101/82 81/98/81
f 67/100/67 68/81/68 83/102/83 82/101/82
f 68/81/68 84/83/84 85/103/85 83/102/83
f 84/104/84 73/93/73 86/96/86 85/103/85
f 82/101/82 83/102/83 85/103/85 86/96/86
f 80/105/80 71/106/71 76/107/76 74/108/74
f 70/80/70 69/109/69 89/110/89 88/111/88
f 69/109/69 78/112/78 90/113/90 89/110/89
f 78/114/78 76/107/76 71/106/71 90/113/90
f 72/84/72 70/80/70 88/111/88 87/115/87
f 87/115/87 80/105/80 74/108/74 72/116/72
f 80/105/80 87/115/87 88/111/88 71/106/71
f 89/110/89 90/113/90 71/106/71 88/111/88
f 79/95/79 81/98/81 82/101/82 86/96/86

# 94 faces
