{
	"asset": {
		"generator": "Unity 5.6.0f3",
		"extras": {
			"exporterVersion" : "2.0.6"
		},
		"version": "2.0"
	},
	"accessors": [
		{
			"bufferView": 1,
			"byteOffset": 0,
			"componentType": 5126,
			"count": 582,
			"max": [ 0.3440989, 0.4528981, -0.008931793 ],
			"min": [ -0.7119924, -0.5067598, -1.77214 ],
			"type": "VEC3"
		},
		{
			"bufferView": 1,
			"byteOffset": 6984,
			"componentType": 5126,
			"count": 582,
			"max": [ 0.9974512, 0.8907336, 0.9977285 ],
			"min": [ -0.9999999, -0.8907335, -1 ],
			"type": "VEC3"
		},
		{
			"bufferView": 2,
			"byteOffset": 0,
			"componentType": 5126,
			"count": 582,
			"max": [ 1, 0, 0, 1 ],
			"min": [ 1, 0, 0, 1 ],
			"type": "VEC4"
		},
		{
			"bufferView": 0,
			"byteOffset": 0,
			"componentType": 5123,
			"count": 474,
			"max": [ 297 ],
			"min": [ 0 ],
			"type": "SCALAR"
		},
		{
			"bufferView": 0,
			"byteOffset": 948,
			"componentType": 5123,
			"count": 288,
			"max": [ 521 ],
			"min": [ 298 ],
			"type": "SCALAR"
		},
		{
			"bufferView": 0,
			"byteOffset": 1524,
			"componentType": 5123,
			"count": 60,
			"max": [ 581 ],
			"min": [ 522 ],
			"type": "SCALAR"
		},
		{
			"bufferView": 1,
			"byteOffset": 13968,
			"componentType": 5126,
			"count": 582,
			"max": [ 0.3440989, 0.4528981, -0.008931793 ],
			"min": [ -0.7119924, -0.5067598, -1.77214 ],
			"type": "VEC3"
		},
		{
			"bufferView": 1,
			"byteOffset": 20952,
			"componentType": 5126,
			"count": 582,
			"max": [ 0.9974512, 0.8907336, 0.9977285 ],
			"min": [ -0.9999999, -0.8907335, -1 ],
			"type": "VEC3"
		},
		{
			"bufferView": 2,
			"byteOffset": 9312,
			"componentType": 5126,
			"count": 582,
			"max": [ 1, 0, 0, 1 ],
			"min": [ 1, 0, 0, 1 ],
			"type": "VEC4"
		},
		{
			"bufferView": 0,
			"byteOffset": 1644,
			"componentType": 5123,
			"count": 474,
			"max": [ 297 ],
			"min": [ 0 ],
			"type": "SCALAR"
		},
		{
			"bufferView": 0,
			"byteOffset": 2592,
			"componentType": 5123,
			"count": 288,
			"max": [ 521 ],
			"min": [ 298 ],
			"type": "SCALAR"
		},
		{
			"bufferView": 0,
			"byteOffset": 3168,
			"componentType": 5123,
			"count": 60,
			"max": [ 581 ],
			"min": [ 522 ],
			"type": "SCALAR"
		},
		{
			"bufferView": 1,
			"byteOffset": 27936,
			"componentType": 5126,
			"count": 582,
			"max": [ 0.3440989, 0.4528981, -0.008931793 ],
			"min": [ -0.7119924, -0.5067598, -1.77214 ],
			"type": "VEC3"
		},
		{
			"bufferView": 1,
			"byteOffset": 34920,
			"componentType": 5126,
			"count": 582,
			"max": [ 0.9974512, 0.8907336, 0.9977285 ],
			"min": [ -0.9999999, -0.8907335, -1 ],
			"type": "VEC3"
		},
		{
			"bufferView": 2,
			"byteOffset": 18624,
			"componentType": 5126,
			"count": 582,
			"max": [ 1, 0, 0, 1 ],
			"min": [ 1, 0, 0, 1 ],
			"type": "VEC4"
		},
		{
			"bufferView": 0,
			"byteOffset": 3288,
			"componentType": 5123,
			"count": 474,
			"max": [ 297 ],
			"min": [ 0 ],
			"type": "SCALAR"
		},
		{
			"bufferView": 0,
			"byteOffset": 4236,
			"componentType": 5123,
			"count": 288,
			"max": [ 521 ],
			"min": [ 298 ],
			"type": "SCALAR"
		},
		{
			"bufferView": 0,
			"byteOffset": 4812,
			"componentType": 5123,
			"count": 60,
			"max": [ 581 ],
			"min": [ 522 ],
			"type": "SCALAR"
		},
		{
			"bufferView": 1,
			"byteOffset": 41904,
			"componentType": 5126,
			"count": 582,
			"max": [ 0.3440989, 0.4528981, -0.008931793 ],
			"min": [ -0.7119924, -0.5067598, -1.77214 ],
			"type": "VEC3"
		},
		{
			"bufferView": 1,
			"byteOffset": 48888,
			"componentType": 5126,
			"count": 582,
			"max": [ 0.9974512, 0.8907336, 0.9977285 ],
			"min": [ -0.9999999, -0.8907335, -1 ],
			"type": "VEC3"
		},
		{
			"bufferView": 2,
			"byteOffset": 27936,
			"componentType": 5126,
			"count": 582,
			"max": [ 1, 0, 0, 1 ],
			"min": [ 1, 0, 0, 1 ],
			"type": "VEC4"
		},
		{
			"bufferView": 0,
			"byteOffset": 4932,
			"componentType": 5123,
			"count": 474,
			"max": [ 297 ],
			"min": [ 0 ],
			"type": "SCALAR"
		},
		{
			"bufferView": 0,
			"byteOffset": 5880,
			"componentType": 5123,
			"count": 288,
			"max": [ 521 ],
			"min": [ 298 ],
			"type": "SCALAR"
		},
		{
			"bufferView": 0,
			"byteOffset": 6456,
			"componentType": 5123,
			"count": 60,
			"max": [ 581 ],
			"min": [ 522 ],
			"type": "SCALAR"
		},
		{
			"bufferView": 1,
			"byteOffset": 55872,
			"componentType": 5126,
			"count": 582,
			"max": [ 0.3440989, 0.4528981, -0.008931793 ],
			"min": [ -0.7119924, -0.5067598, -1.77214 ],
			"type": "VEC3"
		},
		{
			"bufferView": 1,
			"byteOffset": 62856,
			"componentType": 5126,
			"count": 582,
			"max": [ 0.9974512, 0.8907336, 0.9977285 ],
			"min": [ -0.9999999, -0.8907335, -1 ],
			"type": "VEC3"
		},
		{
			"bufferView": 2,
			"byteOffset": 37248,
			"componentType": 5126,
			"count": 582,
			"max": [ 1, 0, 0, 1 ],
			"min": [ 1, 0, 0, 1 ],
			"type": "VEC4"
		},
		{
			"bufferView": 0,
			"byteOffset": 6576,
			"componentType": 5123,
			"count": 474,
			"max": [ 297 ],
			"min": [ 0 ],
			"type": "SCALAR"
		},
		{
			"bufferView": 0,
			"byteOffset": 7524,
			"componentType": 5123,
			"count": 288,
			"max": [ 521 ],
			"min": [ 298 ],
			"type": "SCALAR"
		},
		{
			"bufferView": 0,
			"byteOffset": 8100,
			"componentType": 5123,
			"count": 60,
			"max": [ 581 ],
			"min": [ 522 ],
			"type": "SCALAR"
		},
		{
			"bufferView": 1,
			"byteOffset": 69840,
			"componentType": 5126,
			"count": 582,
			"max": [ 0.3440989, 0.4528981, -0.008931793 ],
			"min": [ -0.7119924, -0.5067598, -1.77214 ],
			"type": "VEC3"
		},
		{
			"bufferView": 1,
			"byteOffset": 76824,
			"componentType": 5126,
			"count": 582,
			"max": [ 0.9974512, 0.8907336, 0.9977285 ],
			"min": [ -0.9999999, -0.8907335, -1 ],
			"type": "VEC3"
		},
		{
			"bufferView": 2,
			"byteOffset": 46560,
			"componentType": 5126,
			"count": 582,
			"max": [ 1, 0, 0, 1 ],
			"min": [ 1, 0, 0, 1 ],
			"type": "VEC4"
		},
		{
			"bufferView": 0,
			"byteOffset": 8220,
			"componentType": 5123,
			"count": 474,
			"max": [ 297 ],
			"min": [ 0 ],
			"type": "SCALAR"
		},
		{
			"bufferView": 0,
			"byteOffset": 9168,
			"componentType": 5123,
			"count": 288,
			"max": [ 521 ],
			"min": [ 298 ],
			"type": "SCALAR"
		},
		{
			"bufferView": 0,
			"byteOffset": 9744,
			"componentType": 5123,
			"count": 60,
			"max": [ 581 ],
			"min": [ 522 ],
			"type": "SCALAR"
		},
		{
			"bufferView": 1,
			"byteOffset": 83808,
			"componentType": 5126,
			"count": 582,
			"max": [ 0.3440989, 0.4528981, -0.008931793 ],
			"min": [ -0.7119924, -0.5067598, -1.77214 ],
			"type": "VEC3"
		},
		{
			"bufferView": 1,
			"byteOffset": 90792,
			"componentType": 5126,
			"count": 582,
			"max": [ 0.9974512, 0.8907336, 0.9977285 ],
			"min": [ -0.9999999, -0.8907335, -1 ],
			"type": "VEC3"
		},
		{
			"bufferView": 2,
			"byteOffset": 55872,
			"componentType": 5126,
			"count": 582,
			"max": [ 1, 0, 0, 1 ],
			"min": [ 1, 0, 0, 1 ],
			"type": "VEC4"
		},
		{
			"bufferView": 0,
			"byteOffset": 9864,
			"componentType": 5123,
			"count": 474,
			"max": [ 297 ],
			"min": [ 0 ],
			"type": "SCALAR"
		},
		{
			"bufferView": 0,
			"byteOffset": 10812,
			"componentType": 5123,
			"count": 288,
			"max": [ 521 ],
			"min": [ 298 ],
			"type": "SCALAR"
		},
		{
			"bufferView": 0,
			"byteOffset": 11388,
			"componentType": 5123,
			"count": 60,
			"max": [ 581 ],
			"min": [ 522 ],
			"type": "SCALAR"
		},
		{
			"bufferView": 1,
			"byteOffset": 97776,
			"componentType": 5126,
			"count": 582,
			"max": [ 0.3440989, 0.4528981, -0.008931793 ],
			"min": [ -0.7119924, -0.5067598, -1.77214 ],
			"type": "VEC3"
		},
		{
			"bufferView": 1,
			"byteOffset": 104760,
			"componentType": 5126,
			"count": 582,
			"max": [ 0.9974512, 0.8907336, 0.9977285 ],
			"min": [ -0.9999999, -0.8907335, -1 ],
			"type": "VEC3"
		},
		{
			"bufferView": 2,
			"byteOffset": 65184,
			"componentType": 5126,
			"count": 582,
			"max": [ 1, 0, 0, 1 ],
			"min": [ 1, 0, 0, 1 ],
			"type": "VEC4"
		},
		{
			"bufferView": 0,
			"byteOffset": 11508,
			"componentType": 5123,
			"count": 474,
			"max": [ 297 ],
			"min": [ 0 ],
			"type": "SCALAR"
		},
		{
			"bufferView": 0,
			"byteOffset": 12456,
			"componentType": 5123,
			"count": 288,
			"max": [ 521 ],
			"min": [ 298 ],
			"type": "SCALAR"
		},
		{
			"bufferView": 0,
			"byteOffset": 13032,
			"componentType": 5123,
			"count": 60,
			"max": [ 581 ],
			"min": [ 522 ],
			"type": "SCALAR"
		},
		{
			"bufferView": 1,
			"byteOffset": 111744,
			"componentType": 5126,
			"count": 582,
			"max": [ 0.3440989, 0.4528981, -0.008931793 ],
			"min": [ -0.7119924, -0.5067598, -1.77214 ],
			"type": "VEC3"
		},
		{
			"bufferView": 1,
			"byteOffset": 118728,
			"componentType": 5126,
			"count": 582,
			"max": [ 0.9974512, 0.8907336, 0.9977285 ],
			"min": [ -0.9999999, -0.8907335, -1 ],
			"type": "VEC3"
		},
		{
			"bufferView": 2,
			"byteOffset": 74496,
			"componentType": 5126,
			"count": 582,
			"max": [ 1, 0, 0, 1 ],
			"min": [ 1, 0, 0, 1 ],
			"type": "VEC4"
		},
		{
			"bufferView": 0,
			"byteOffset": 13152,
			"componentType": 5123,
			"count": 474,
			"max": [ 297 ],
			"min": [ 0 ],
			"type": "SCALAR"
		},
		{
			"bufferView": 0,
			"byteOffset": 14100,
			"componentType": 5123,
			"count": 288,
			"max": [ 521 ],
			"min": [ 298 ],
			"type": "SCALAR"
		},
		{
			"bufferView": 0,
			"byteOffset": 14676,
			"componentType": 5123,
			"count": 60,
			"max": [ 581 ],
			"min": [ 522 ],
			"type": "SCALAR"
		},
		{
			"bufferView": 1,
			"byteOffset": 125712,
			"componentType": 5126,
			"count": 582,
			"max": [ 0.3440989, 0.4528981, -0.008931793 ],
			"min": [ -0.7119924, -0.5067598, -1.77214 ],
			"type": "VEC3"
		},
		{
			"bufferView": 1,
			"byteOffset": 132696,
			"componentType": 5126,
			"count": 582,
			"max": [ 0.9974512, 0.8907336, 0.9977285 ],
			"min": [ -0.9999999, -0.8907335, -1 ],
			"type": "VEC3"
		},
		{
			"bufferView": 2,
			"byteOffset": 83808,
			"componentType": 5126,
			"count": 582,
			"max": [ 1, 0, 0, 1 ],
			"min": [ 1, 0, 0, 1 ],
			"type": "VEC4"
		},
		{
			"bufferView": 0,
			"byteOffset": 14796,
			"componentType": 5123,
			"count": 474,
			"max": [ 297 ],
			"min": [ 0 ],
			"type": "SCALAR"
		},
		{
			"bufferView": 0,
			"byteOffset": 15744,
			"componentType": 5123,
			"count": 288,
			"max": [ 521 ],
			"min": [ 298 ],
			"type": "SCALAR"
		},
		{
			"bufferView": 0,
			"byteOffset": 16320,
			"componentType": 5123,
			"count": 60,
			"max": [ 581 ],
			"min": [ 522 ],
			"type": "SCALAR"
		}
	],
	"buffers": [
		{
			"byteLength": 249240,
			"uri": "Unity2Skfb.bin"
		}
	],
	"bufferViews": [
		{
			"buffer": 0,
			"byteLength": 16440,
			"byteOffset": 0,
			"byteStride": 0,
			"target": 34963
		},
		{
			"buffer": 0,
			"byteLength": 139680,
			"byteOffset": 16440,
			"byteStride": 12,
			"target": 34962
		},
		{
			"buffer": 0,
			"byteLength": 93120,
			"byteOffset": 156120,
			"byteStride": 16,
			"target": 34962
		}
	],
	"materials": [
		{
			"pbrMetallicRoughness": {
				"baseColorFactor": [0.4234217, 0.5147059, 0.2346453, 1],
				"roughnessFactor": 0,
				"metallicFactor": 0
			},
			"doubleSided": false,
			"emissiveFactor": [0, 0, 0],
			"name": "green"
		},
		{
			"pbrMetallicRoughness": {
				"baseColorFactor": [0.9531722, 0.9442428, 0.9911022, 1],
				"roughnessFactor": 0.5,
				"metallicFactor": 0
			},
			"doubleSided": false,
			"emissiveFactor": [0, 0, 0],
			"name": "white"
		},
		{
			"pbrMetallicRoughness": {
				"baseColorFactor": [0.9926471, 0.7570696, 0.1386786, 1],
				"roughnessFactor": 0,
				"metallicFactor": 0
			},
			"doubleSided": false,
			"emissiveFactor": [0, 0, 0],
			"name": "yellow"
		}
	],
	"meshes": [
		{
			"name": "mesh_margarita flower_56726margarita (3)",
			"primitives": [
				{
					"attributes": {
						"POSITION": 0,
						"NORMAL": 1,
						"TANGENT4": 2
					},
					"indices": 3,
					"material": 0,
					"mode": 4
				},
				{
					"attributes": {
						"POSITION": 0,
						"NORMAL": 1,
						"TANGENT4": 2
					},
					"indices": 4,
					"material": 1,
					"mode": 4
				},
				{
					"attributes": {
						"POSITION": 0,
						"NORMAL": 1,
						"TANGENT4": 2
					},
					"indices": 5,
					"material": 2,
					"mode": 4
				}
			]
		},
		{
			"name": "mesh_margarita flower_56726margarita (7)",
			"primitives": [
				{
					"attributes": {
						"POSITION": 6,
						"NORMAL": 7,
						"TANGENT4": 8
					},
					"indices": 9,
					"material": 0,
					"mode": 4
				},
				{
					"attributes": {
						"POSITION": 6,
						"NORMAL": 7,
						"TANGENT4": 8
					},
					"indices": 10,
					"material": 1,
					"mode": 4
				},
				{
					"attributes": {
						"POSITION": 6,
						"NORMAL": 7,
						"TANGENT4": 8
					},
					"indices": 11,
					"material": 2,
					"mode": 4
				}
			]
		},
		{
			"name": "mesh_margarita flower_56726margarita (4)",
			"primitives": [
				{
					"attributes": {
						"POSITION": 12,
						"NORMAL": 13,
						"TANGENT4": 14
					},
					"indices": 15,
					"material": 0,
					"mode": 4
				},
				{
					"attributes": {
						"POSITION": 12,
						"NORMAL": 13,
						"TANGENT4": 14
					},
					"indices": 16,
					"material": 1,
					"mode": 4
				},
				{
					"attributes": {
						"POSITION": 12,
						"NORMAL": 13,
						"TANGENT4": 14
					},
					"indices": 17,
					"material": 2,
					"mode": 4
				}
			]
		},
		{
			"name": "mesh_margarita flower_56726margarita (6)",
			"primitives": [
				{
					"attributes": {
						"POSITION": 18,
						"NORMAL": 19,
						"TANGENT4": 20
					},
					"indices": 21,
					"material": 0,
					"mode": 4
				},
				{
					"attributes": {
						"POSITION": 18,
						"NORMAL": 19,
						"TANGENT4": 20
					},
					"indices": 22,
					"material": 1,
					"mode": 4
				},
				{
					"attributes": {
						"POSITION": 18,
						"NORMAL": 19,
						"TANGENT4": 20
					},
					"indices": 23,
					"material": 2,
					"mode": 4
				}
			]
		},
		{
			"name": "mesh_margarita flower_56726margarita (1)",
			"primitives": [
				{
					"attributes": {
						"POSITION": 24,
						"NORMAL": 25,
						"TANGENT4": 26
					},
					"indices": 27,
					"material": 0,
					"mode": 4
				},
				{
					"attributes": {
						"POSITION": 24,
						"NORMAL": 25,
						"TANGENT4": 26
					},
					"indices": 28,
					"material": 1,
					"mode": 4
				},
				{
					"attributes": {
						"POSITION": 24,
						"NORMAL": 25,
						"TANGENT4": 26
					},
					"indices": 29,
					"material": 2,
					"mode": 4
				}
			]
		},
		{
			"name": "mesh_margarita flower_56726margarita (5)",
			"primitives": [
				{
					"attributes": {
						"POSITION": 30,
						"NORMAL": 31,
						"TANGENT4": 32
					},
					"indices": 33,
					"material": 0,
					"mode": 4
				},
				{
					"attributes": {
						"POSITION": 30,
						"NORMAL": 31,
						"TANGENT4": 32
					},
					"indices": 34,
					"material": 1,
					"mode": 4
				},
				{
					"attributes": {
						"POSITION": 30,
						"NORMAL": 31,
						"TANGENT4": 32
					},
					"indices": 35,
					"material": 2,
					"mode": 4
				}
			]
		},
		{
			"name": "mesh_margarita flower_56726margarita (9)",
			"primitives": [
				{
					"attributes": {
						"POSITION": 36,
						"NORMAL": 37,
						"TANGENT4": 38
					},
					"indices": 39,
					"material": 0,
					"mode": 4
				},
				{
					"attributes": {
						"POSITION": 36,
						"NORMAL": 37,
						"TANGENT4": 38
					},
					"indices": 40,
					"material": 1,
					"mode": 4
				},
				{
					"attributes": {
						"POSITION": 36,
						"NORMAL": 37,
						"TANGENT4": 38
					},
					"indices": 41,
					"material": 2,
					"mode": 4
				}
			]
		},
		{
			"name": "mesh_margarita flower_56726margarita",
			"primitives": [
				{
					"attributes": {
						"POSITION": 42,
						"NORMAL": 43,
						"TANGENT4": 44
					},
					"indices": 45,
					"material": 0,
					"mode": 4
				},
				{
					"attributes": {
						"POSITION": 42,
						"NORMAL": 43,
						"TANGENT4": 44
					},
					"indices": 46,
					"material": 1,
					"mode": 4
				},
				{
					"attributes": {
						"POSITION": 42,
						"NORMAL": 43,
						"TANGENT4": 44
					},
					"indices": 47,
					"material": 2,
					"mode": 4
				}
			]
		},
		{
			"name": "mesh_margarita flower_56726margarita (2)",
			"primitives": [
				{
					"attributes": {
						"POSITION": 48,
						"NORMAL": 49,
						"TANGENT4": 50
					},
					"indices": 51,
					"material": 0,
					"mode": 4
				},
				{
					"attributes": {
						"POSITION": 48,
						"NORMAL": 49,
						"TANGENT4": 50
					},
					"indices": 52,
					"material": 1,
					"mode": 4
				},
				{
					"attributes": {
						"POSITION": 48,
						"NORMAL": 49,
						"TANGENT4": 50
					},
					"indices": 53,
					"material": 2,
					"mode": 4
				}
			]
		},
		{
			"name": "mesh_margarita flower_56726margarita (8)",
			"primitives": [
				{
					"attributes": {
						"POSITION": 54,
						"NORMAL": 55,
						"TANGENT4": 56
					},
					"indices": 57,
					"material": 0,
					"mode": 4
				},
				{
					"attributes": {
						"POSITION": 54,
						"NORMAL": 55,
						"TANGENT4": 56
					},
					"indices": 58,
					"material": 1,
					"mode": 4
				},
				{
					"attributes": {
						"POSITION": 54,
						"NORMAL": 55,
						"TANGENT4": 56
					},
					"indices": 59,
					"material": 2,
					"mode": 4
				}
			]
		}
	],
	"nodes": [
		{
			"name": "UnityGlTF_correctionMatrix",
			"children": [
				4
			],
			"matrix": [-1, 0, -8.742278E-08, 0, 0, 1, 0, 0, 8.742278E-08, 0, -1, 0, 0, 0, 0, 1]
		},
		{
			"name": "node_margarita (3)_-2111142",
			"mesh": 0,
			"scale": [ 0.9365478, 0.9365478, 0.9365478],
			"rotation": [0.2376414, -0.7235589, 0.6058103, -0.2301804]
		},
		{
			"name": "node_margarita (7)_-2118288",
			"mesh": 1,
			"translation": [ 0.022, 0.519, -0.007],
			"scale": [ 0.5084415, 0.508442, 0.508442],
			"rotation": [-0.6257455, -0.36973, -0.283171, -0.6257449]
		},
		{
			"name": "node_margarita (4)_-2111692",
			"mesh": 2,
			"scale": [ 0.8236588, 0.8236587, 0.8236587],
			"rotation": [-0.114528, -0.7529237, 0.6444843, 0.06803875]
		},
		{
			"name": "node_margarita bush_-2113202",
			"children": [
				6,
				10,
				1,
				3,
				7,
				9,
				5,
				2,
				11,
				8
			],
			"matrix": [1, 0, 0, 0, 0, 0.991326, 0.1314262, 0, 0, -0.1314262, 0.991326, 0, 275.4, 29.6, 5.74, 1]
		},
		{
			"name": "node_margarita (6)_-2117574",
			"mesh": 3,
			"scale": [ 1.01716, 1.017159, 1.017159],
			"rotation": [0.2975791, -0.4985182, 0.8012635, -0.1445796]
		},
		{
			"name": "node_margarita (1)_-2110252",
			"mesh": 4,
			"scale": [ 0.9365471, 0.9365478, 0.9365478],
			"rotation": [-0.9016905, 0, 0, -0.432382]
		},
		{
			"name": "node_margarita (5)_-2111982",
			"mesh": 5,
			"scale": [ 0.561806, 0.5618058, 0.5618061],
			"rotation": [-0.07875944, -0.9451104, 0.2983631, 0.1074378]
		},
		{
			"name": "node_margarita (9)_-2122542",
			"mesh": 6,
			"translation": [ 0.02200317, 0.5190008, -0.007000335],
			"scale": [ 0.7453589, 0.7453591, 0.7453588],
			"rotation": [-0.3850632, 0.2582912, -0.4012992, -0.7899184]
		},
		{
			"name": "node_margarita_-2109454",
			"mesh": 7,
			"rotation": [-0.7071068, 0, 0, -0.7071068]
		},
		{
			"name": "node_margarita (2)_-2110504",
			"mesh": 8,
			"scale": [ 0.7323846, 0.7323849, 0.7323851],
			"rotation": [-0.8466275, -0.3102705, -0.1487821, -0.405978]
		},
		{
			"name": "node_margarita (8)_-2121834",
			"mesh": 9,
			"translation": [ 0.02200317, 0.5190008, -0.007000335],
			"scale": [ 0.8816548, 0.8816552, 0.8816551],
			"rotation": [-0.289542, 0.04074125, -0.6561553, -0.6956766]
		}
	],
	"scenes": [
		{
			"name":"defaultScene",
			"nodes": [
				0
			]
		}
	],
	"scene": 0
}